<svg width="122" height="20" viewBox="0 0 122 20" fill="none" xmlns="http://www.w3.org/2000/svg">
<path d="M116.421 12.6683C116.403 10.6458 116.384 8.61401 116.365 6.57281C116.347 4.51289 116.318 2.47169 116.281 0.449219C117.105 0.449219 117.929 0.449219 118.753 0.449219C119.577 0.449219 120.391 0.449219 121.197 0.449219C121.178 2.47169 121.159 4.51289 121.141 6.57281C121.122 8.61401 121.094 10.6458 121.056 12.6683C120.307 12.6683 119.539 12.6683 118.753 12.6683C117.966 12.6683 117.189 12.6683 116.421 12.6683ZM118.753 19.9998C118.21 19.9998 117.704 19.8687 117.236 19.6065C116.787 19.3443 116.431 18.9885 116.169 18.5391C115.906 18.0897 115.775 17.6028 115.775 17.0784C115.775 16.2919 116.066 15.6178 116.646 15.056C117.227 14.4754 117.929 14.1852 118.753 14.1852C119.296 14.1852 119.783 14.3163 120.214 14.5784C120.663 14.8406 121.019 15.1964 121.281 15.6458C121.562 16.0766 121.702 16.5541 121.702 17.0784C121.702 17.6028 121.562 18.0897 121.281 18.5391C121.019 18.9885 120.663 19.3443 120.214 19.6065C119.783 19.8687 119.296 19.9998 118.753 19.9998Z" fill="#2B7FFF"/>
<path d="M95.1904 19.5503C96.1642 16.4043 97.138 13.2208 98.1118 9.99978C99.1043 6.77881 100.087 3.59529 101.061 0.449219C102.166 0.449219 103.28 0.449219 104.404 0.449219C105.546 0.449219 106.67 0.449219 107.775 0.449219C108.748 3.59529 109.722 6.77881 110.696 9.99978C111.689 13.2208 112.672 16.4043 113.645 19.5503C112.84 19.5503 112.016 19.5503 111.174 19.5503C110.35 19.5503 109.526 19.5503 108.702 19.5503C108.514 18.9511 108.336 18.3518 108.168 17.7526C107.999 17.1346 107.822 16.526 107.634 15.9267C106.567 15.9267 105.49 15.9267 104.404 15.9267C103.336 15.9267 102.269 15.9267 101.202 15.9267C101.014 16.526 100.836 17.1346 100.668 17.7526C100.499 18.3518 100.322 18.9511 100.134 19.5503C99.329 19.5503 98.505 19.5503 97.6623 19.5503C96.8384 19.5503 96.0144 19.5503 95.1904 19.5503ZM102.438 11.7414C103.093 11.7414 103.748 11.7414 104.404 11.7414C105.078 11.7414 105.743 11.7414 106.398 11.7414C106.08 10.6365 105.752 9.52225 105.415 8.39866C105.078 7.27506 104.75 6.16083 104.432 5.05596C104.114 6.16083 103.777 7.27506 103.421 8.39866C103.084 9.52225 102.756 10.6365 102.438 11.7414Z" fill="#2B7FFF"/>
<path d="M80.2827 19.5503C80.2827 16.4043 80.2827 13.2208 80.2827 9.99978C80.2827 6.77881 80.2827 3.59529 80.2827 0.449219C81.4438 0.449219 82.6048 0.449219 83.7659 0.449219C84.9456 0.449219 86.1067 0.449219 87.249 0.449219C88.5411 0.449219 89.6741 0.6833 90.6479 1.15146C91.6217 1.6009 92.3801 2.23761 92.9232 3.06158C93.4662 3.86682 93.7378 4.82188 93.7378 5.92675C93.7378 6.71326 93.588 7.42487 93.2883 8.06158C92.9887 8.69828 92.5393 9.23199 91.94 9.6627C92.7265 10.1309 93.3258 10.7395 93.7378 11.4885C94.1498 12.2189 94.3557 13.0335 94.3557 13.9324C94.3557 15.056 94.0655 16.0391 93.485 16.8818C92.9232 17.7245 92.1273 18.3799 91.0973 18.8481C90.0861 19.3163 88.8969 19.5503 87.5299 19.5503C86.3314 19.5503 85.1235 19.5503 83.9063 19.5503C82.6891 19.5503 81.4812 19.5503 80.2827 19.5503ZM88.822 6.40427C88.822 5.91738 88.6722 5.52412 88.3726 5.2245C88.073 4.90615 87.6797 4.74697 87.1928 4.74697C86.8557 4.74697 86.5093 4.74697 86.1535 4.74697C85.8164 4.74697 85.4793 4.74697 85.1423 4.74697C85.1423 5.27132 85.1423 5.81439 85.1423 6.37618C85.1423 6.91926 85.1423 7.46233 85.1423 8.0054C85.4793 8.0054 85.8164 8.0054 86.1535 8.0054C86.5093 8.0054 86.8557 8.0054 87.1928 8.0054C87.6797 8.0054 88.073 7.86495 88.3726 7.58405C88.6722 7.28442 88.822 6.89116 88.822 6.40427ZM89.44 13.4829C89.44 12.9586 89.2621 12.5466 88.9063 12.247C88.5692 11.9286 88.1011 11.7694 87.5018 11.7694C87.1086 11.7694 86.7153 11.7694 86.322 11.7694C85.9288 11.7694 85.5355 11.7694 85.1423 11.7694C85.1423 12.35 85.1423 12.9305 85.1423 13.511C85.1423 14.0915 85.1423 14.6721 85.1423 15.2526C85.5355 15.2526 85.9288 15.2526 86.322 15.2526C86.7153 15.2526 87.1086 15.2526 87.5018 15.2526C88.1011 15.2526 88.5692 15.0934 88.9063 14.7751C89.2621 14.4567 89.44 14.026 89.44 13.4829Z" fill="#2B7FFF"/>
<path d="M65.4424 19.5503C65.4424 16.4043 65.4424 13.2208 65.4424 9.99978C65.4424 6.77881 65.4424 3.59529 65.4424 0.449219C67.3338 0.449219 69.2439 0.449219 71.1727 0.449219C73.1016 0.449219 75.0117 0.449219 76.9031 0.449219C76.9031 1.16083 76.9031 1.89117 76.9031 2.64023C76.9031 3.38929 76.9031 4.11963 76.9031 4.83124C75.8169 4.83124 74.7214 4.83124 73.6165 4.83124C72.5304 4.83124 71.4443 4.83124 70.3581 4.83124C70.3581 5.29941 70.3581 5.76757 70.3581 6.23573C70.3581 6.68517 70.3581 7.14397 70.3581 7.61214C71.3506 7.61214 72.3525 7.61214 73.3637 7.61214C74.375 7.61214 75.3675 7.61214 76.3413 7.61214C76.3413 8.30502 76.3413 9.00727 76.3413 9.71888C76.3413 10.4305 76.3413 11.1421 76.3413 11.8537C75.3675 11.8537 74.375 11.8537 73.3637 11.8537C72.3525 11.8537 71.3506 11.8537 70.3581 11.8537C70.3581 12.3968 70.3581 12.9492 70.3581 13.511C70.3581 14.0728 70.3581 14.6252 70.3581 15.1683C71.4443 15.1683 72.5304 15.1683 73.6165 15.1683C74.7214 15.1683 75.8169 15.1683 76.9031 15.1683C76.9031 15.8799 76.9031 16.6103 76.9031 17.3593C76.9031 18.1084 76.9031 18.8387 76.9031 19.5503C75.0117 19.5503 73.1016 19.5503 71.1727 19.5503C69.2439 19.5503 67.3338 19.5503 65.4424 19.5503Z" fill="#2B7FFF"/>
<path d="M56.7227 19.5503C56.7227 16.4043 56.7227 13.2208 56.7227 9.99978C56.7227 6.77881 56.7227 3.59529 56.7227 0.449219C57.5466 0.449219 58.3706 0.449219 59.1946 0.449219C60.0185 0.449219 60.8331 0.449219 61.6384 0.449219C61.6384 3.59529 61.6384 6.77881 61.6384 9.99978C61.6384 13.2208 61.6384 16.4043 61.6384 19.5503C60.8331 19.5503 60.0185 19.5503 59.1946 19.5503C58.3706 19.5503 57.5466 19.5503 56.7227 19.5503Z" fill="#2B7FFF"/>
<path d="M53.2155 12.3031C53.2155 13.4829 53.0095 14.5503 52.5975 15.5054C52.2042 16.4417 51.6424 17.247 50.9121 17.9211C50.2005 18.5953 49.3578 19.1103 48.384 19.4661C47.429 19.8219 46.3896 19.9998 45.266 19.9998C44.1237 19.9998 43.075 19.8219 42.12 19.4661C41.1649 19.1103 40.3316 18.6046 39.62 17.9492C38.9271 17.2751 38.384 16.4698 37.9908 15.5335C37.5975 14.5972 37.4009 13.5391 37.4009 12.3593C37.4009 10.393 37.4009 8.40802 37.4009 6.40427C37.4009 4.40053 37.4009 2.41551 37.4009 0.449219C38.2248 0.449219 39.0488 0.449219 39.8728 0.449219C40.6968 0.449219 41.5114 0.449219 42.3166 0.449219C42.3166 2.37806 42.3166 4.31626 42.3166 6.26382C42.3166 8.21139 42.3166 10.1496 42.3166 12.0784C42.3166 13.0897 42.5975 13.9043 43.1593 14.5223C43.7211 15.1402 44.4421 15.4492 45.3222 15.4492C46.2024 15.4492 46.914 15.1402 47.4571 14.5223C48.0189 13.9043 48.2998 13.0897 48.2998 12.0784C48.2998 10.1496 48.2998 8.21139 48.2998 6.26382C48.2998 4.31626 48.2998 2.37806 48.2998 0.449219C49.1237 0.449219 49.9477 0.449219 50.7717 0.449219C51.5956 0.449219 52.4102 0.449219 53.2155 0.449219C53.2155 2.39678 53.2155 4.37244 53.2155 6.37618C53.2155 8.37993 53.2155 10.3556 53.2155 12.3031Z" fill="#2B7FFF"/>
<path d="M25.7732 20C24.4061 20 23.1421 19.7566 21.981 19.2697C20.82 18.764 19.8181 18.0618 18.9754 17.1629C18.1327 16.264 17.4773 15.206 17.0091 13.9888C16.541 12.7528 16.3069 11.4139 16.3069 9.97191C16.3069 8.52996 16.541 7.20037 17.0091 5.98315C17.4773 4.76592 18.1327 3.71723 18.9754 2.83708C19.8181 1.9382 20.82 1.24532 21.981 0.758427C23.1421 0.252809 24.4061 0 25.7732 0C27.1402 0 28.3949 0.252809 29.5372 0.758427C30.6983 1.24532 31.7001 1.9382 32.5428 2.83708C33.4043 3.71723 34.0691 4.76592 34.5372 5.98315C35.0054 7.20037 35.2395 8.52996 35.2395 9.97191C35.2395 11.4139 35.0054 12.7528 34.5372 13.9888C34.0691 15.206 33.4043 16.264 32.5428 17.1629C31.7001 18.0618 30.6983 18.764 29.5372 19.2697C28.3949 19.7566 27.1402 20 25.7732 20ZM25.7732 15.4494C26.6908 15.4494 27.4773 15.2247 28.1327 14.7753C28.7882 14.3071 29.2938 13.661 29.6496 12.8371C30.0241 12.0131 30.2114 11.0581 30.2114 9.97191C30.2114 8.88577 30.0241 7.94007 29.6496 7.13483C29.2938 6.32959 28.7882 5.70225 28.1327 5.25281C27.4773 4.78464 26.6908 4.55056 25.7732 4.55056C24.8743 4.55056 24.0878 4.77528 23.4136 5.22472C22.7582 5.67416 22.2432 6.31086 21.8687 7.13483C21.5129 7.94007 21.335 8.88577 21.335 9.97191C21.335 11.0581 21.5129 12.0131 21.8687 12.8371C22.2432 13.661 22.7582 14.3071 23.4136 14.7753C24.0878 15.2247 24.8743 15.4494 25.7732 15.4494Z" fill="#2B7FFF"/>
<path d="M11.5818 5.41555C11.1886 4.9151 10.6702 4.52189 10.0268 4.23592C9.40125 3.93208 8.79356 3.78016 8.20375 3.78016C7.89991 3.78016 7.58713 3.80697 7.26541 3.86059C6.96157 3.91421 6.68454 4.02145 6.43431 4.1823C6.18409 4.32529 5.96961 4.52189 5.79088 4.77212C5.63002 5.00447 5.5496 5.30831 5.5496 5.68365C5.5496 6.00536 5.61215 6.27346 5.73726 6.48793C5.88025 6.70241 6.07685 6.89008 6.32708 7.05094C6.59517 7.2118 6.90795 7.36372 7.26541 7.5067C7.62287 7.63181 8.02502 7.76586 8.47185 7.90885C9.11528 8.12332 9.78552 8.36461 10.4826 8.63271C11.1796 8.88293 11.8141 9.22252 12.3861 9.65147C12.958 10.0804 13.4316 10.6166 13.807 11.2601C14.1823 11.8856 14.37 12.672 14.37 13.6193C14.37 14.7096 14.1644 15.6568 13.7533 16.4611C13.3601 17.2475 12.8239 17.8999 12.1448 18.4182C11.4656 18.9365 10.6881 19.3208 9.81233 19.571C8.93655 19.8213 8.03396 19.9464 7.10455 19.9464C5.7462 19.9464 4.43253 19.714 3.16354 19.2493C1.89455 18.7668 0.840035 18.0876 0 17.2118L3.00268 14.1555C3.46738 14.7274 4.07507 15.21 4.82574 15.6032C5.59428 15.9786 6.35388 16.1662 7.10455 16.1662C7.44414 16.1662 7.7748 16.1305 8.09651 16.059C8.41823 15.9875 8.69526 15.8713 8.92761 15.7105C9.17783 15.5496 9.37444 15.3351 9.51742 15.067C9.66041 14.7989 9.7319 14.4772 9.7319 14.1019C9.7319 13.7444 9.64253 13.4406 9.4638 13.1903C9.28507 12.9401 9.02591 12.7167 8.68632 12.5201C8.36461 12.3056 7.95353 12.118 7.45308 11.9571C6.97051 11.7784 6.41644 11.5907 5.79088 11.3941C5.1832 11.1975 4.58445 10.9651 3.99464 10.6971C3.4227 10.429 2.90438 10.0894 2.43968 9.67828C1.99285 9.24933 1.62645 8.73995 1.34048 8.15013C1.07239 7.54245 0.938337 6.80965 0.938337 5.95174C0.938337 4.89723 1.15281 3.99464 1.58177 3.24397C2.01072 2.4933 2.57373 1.87668 3.27078 1.3941C3.96783 0.911527 4.75424 0.563002 5.63002 0.348524C6.50581 0.116175 7.39052 0 8.28418 0C9.35656 0 10.4468 0.196603 11.555 0.589811C12.681 0.983019 13.664 1.56389 14.504 2.33244L11.5818 5.41555Z" fill="#2B7FFF"/>
</svg>
